<?xml version="1.0" standalone="no"?>
<!DOCTYPE svg PUBLIC "-//W3C//DTD SVG 1.1//EN" "http://www.w3.org/Graphics/SVG/1.1/DTD/svg11.dtd">
<svg xmlns="http://www.w3.org/2000/svg" xmlns:xlink="http://www.w3.org/1999/xlink" width="375" zoomAndPan="magnify" viewBox="0 0 375 374.999991" height="375" preserveAspectRatio="xMidYMid meet" version="1.0"><defs><clipPath id="3359448b41"><path d="M 77 61.082031 L 270 61.082031 L 270 227 L 77 227 Z M 77 61.082031 " clip-rule="nonzero"/></clipPath><clipPath id="10c8746c8f"><path d="M 34.5 86 L 340.5 86 L 340.5 313.832031 L 34.5 313.832031 Z M 34.5 86 " clip-rule="nonzero"/></clipPath></defs><rect x="-37.5" width="450" fill="#ffffff" y="-37.499999" height="449.999989" fill-opacity="1"/><rect x="-37.5" width="450" fill="#ffffff" y="-37.499999" height="449.999989" fill-opacity="1"/><g clip-path="url(#3359448b41)"><path fill="#000000" d="M 224.859375 111.347656 C 215.667969 104.613281 203.035156 101.175781 186.847656 101.175781 L 121.957031 101.175781 L 121.957031 180.519531 C 106.261719 194.625 91.546875 210.058594 77.933594 226.507812 L 77.933594 61.082031 L 190.636719 61.082031 C 206.445312 61.082031 220.550781 63.425781 232.808594 67.816406 C 245.207031 72.238281 255.382812 78.484375 263.589844 86.460938 C 265.558594 88.425781 267.40625 90.625 269.113281 92.847656 C 253.90625 98.226562 239.195312 104.355469 224.859375 111.347656 Z M 224.859375 111.347656 " fill-opacity="1" fill-rule="evenodd"/></g><g clip-path="url(#10c8746c8f)"><path fill="#000000" d="M 187.195312 186.53125 C 203.152344 186.53125 215.78125 182.714844 225.207031 174.996094 C 234.65625 167.394531 239.3125 157.105469 239.3125 143.980469 L 239.3125 143.375 C 239.3125 142.160156 239.3125 141.035156 239.3125 139.9375 C 219.308594 153.78125 201.300781 169.246094 185.34375 186.53125 Z M 280.53125 114.558594 C 283.21875 122.652344 284.578125 131.464844 284.578125 140.917969 L 284.578125 141.640625 C 284.578125 152.074219 282.988281 161.382812 280.039062 169.738281 C 276.972656 177.945312 272.8125 185.316406 267.523438 191.675781 C 262.261719 198.0625 255.875 203.441406 248.648438 207.976562 C 241.277344 212.402344 233.066406 215.839844 224.25 218.269531 L 292.4375 313.914062 L 240.0625 313.914062 L 177.773438 225.871094 L 155.226562 225.871094 C 139.15625 251.363281 126.898438 280.558594 119.183594 313.914062 L 34.519531 313.914062 C 96.695312 193.726562 207.199219 110.945312 340.480469 86.171875 C 319.40625 94.929688 299.40625 104.355469 280.53125 114.558594 Z M 280.53125 114.558594 " fill-opacity="1" fill-rule="evenodd"/></g></svg>